<svg>
<symbol id="close" xmlns="http://www.w3.org/2000/svg" viewBox="0 0 24 24" fill="none">
<path fill-rule="evenodd" clip-rule="evenodd" d="M20.7819 3.21897C20.8518 3.28864 20.9072 3.3714 20.945 3.46252C20.9828 3.55363 21.0023 3.65132 21.0023 3.74997C21.0023 3.84862 20.9828 3.9463 20.945 4.03742C20.9072 4.12854 20.8518 4.2113 20.7819 4.28097L4.28195 20.781C4.14112 20.9218 3.95011 21.0009 3.75095 21.0009C3.55178 21.0009 3.36078 20.9218 3.21995 20.781C3.07912 20.6401 3 20.4491 3 20.25C3 20.0508 3.07912 19.8598 3.21995 19.719L19.7199 3.21897C19.7896 3.14912 19.8724 3.09371 19.9635 3.0559C20.0546 3.01809 20.1523 2.99863 20.2509 2.99863C20.3496 2.99863 20.4473 3.01809 20.5384 3.0559C20.6295 3.09371 20.7123 3.14912 20.7819 3.21897Z" fill="currentColor"/>
<path fill-rule="evenodd" clip-rule="evenodd" d="M3.22034 3.21897C3.1505 3.28864 3.09508 3.3714 3.05727 3.46252C3.01946 3.55363 3 3.65132 3 3.74997C3 3.84862 3.01946 3.9463 3.05727 4.03742C3.09508 4.12854 3.1505 4.2113 3.22034 4.28097L19.7203 20.781C19.8612 20.9218 20.0522 21.0009 20.2513 21.0009C20.4505 21.0009 20.6415 20.9218 20.7823 20.781C20.9232 20.6401 21.0023 20.4491 21.0023 20.25C21.0023 20.0508 20.9232 19.8598 20.7823 19.719L4.28234 3.21897C4.21267 3.14912 4.12991 3.09371 4.03879 3.0559C3.94767 3.01809 3.84999 2.99863 3.75134 2.99863C3.65269 2.99863 3.55501 3.01809 3.46389 3.0559C3.37277 3.09371 3.29001 3.14912 3.22034 3.21897Z" fill="currentColor"/>
</symbol>
</svg>