<svg>
<symbol id="logo"  viewBox="0 0 120 72" fill="red" xmlns="http://www.w3.org/2000/svg">
<path d="M15.5016 31.312L13.9056 14.512C13.8496 13.8773 13.5136 13.4293 12.8976 13.168L12.5616 13L12.6176 12.72H19.3096L19.2536 13L18.6376 13.224C18.0403 13.4293 17.7603 13.868 17.7976 14.54L18.6376 26.972L23.7896 16.668L23.5376 14.568C23.4629 13.9147 23.1176 13.4667 22.5016 13.224L21.8856 13L21.9416 12.72H28.7456L28.6896 13L27.9336 13.28C27.3176 13.504 27.0563 13.9427 27.1496 14.596L28.5216 27.028L34.0936 14.568C34.3549 13.9333 34.1683 13.4853 33.5336 13.224L32.9736 13L33.0296 12.72H37.1456L37.0896 13L36.4176 13.224C36.0443 13.3547 35.7363 13.532 35.4936 13.756C35.2509 13.98 35.0456 14.2693 34.8776 14.624L27.4856 31.312H25.4976L23.9576 18.152L17.4616 31.312H15.5016ZM43.1649 31.62C41.7463 31.62 40.5143 31.3307 39.4689 30.752C38.4236 30.1547 37.6116 29.3147 37.0329 28.232C36.4729 27.1493 36.1929 25.88 36.1929 24.424C36.1929 22.968 36.4916 21.708 37.0889 20.644C37.7049 19.58 38.5356 18.7587 39.5809 18.18C40.6449 17.6013 41.8396 17.312 43.1649 17.312C44.4903 17.312 45.6756 17.6013 46.7209 18.18C47.7663 18.74 48.5876 19.552 49.1849 20.616C49.8009 21.68 50.1089 22.9493 50.1089 24.424C50.1089 25.8987 49.8196 27.1773 49.2409 28.26C48.6809 29.324 47.8783 30.1547 46.8329 30.752C45.8063 31.3307 44.5836 31.62 43.1649 31.62ZM43.1649 31.06C43.8183 31.06 44.3409 30.8733 44.7329 30.5C45.1249 30.1267 45.4049 29.464 45.5729 28.512C45.7596 27.56 45.8529 26.216 45.8529 24.48C45.8529 22.7253 45.7596 21.372 45.5729 20.42C45.4049 19.468 45.1249 18.8053 44.7329 18.432C44.3409 18.0587 43.8183 17.872 43.1649 17.872C42.5116 17.872 41.9796 18.0587 41.5689 18.432C41.1769 18.8053 40.8876 19.468 40.7009 20.42C40.5329 21.372 40.4489 22.7253 40.4489 24.48C40.4489 26.216 40.5329 27.56 40.7009 28.512C40.8876 29.464 41.1769 30.1267 41.5689 30.5C41.9796 30.8733 42.5116 31.06 43.1649 31.06ZM53.2988 31.2V30.92L53.7188 30.808C54.0921 30.696 54.3441 30.528 54.4748 30.304C54.6241 30.08 54.6988 29.7907 54.6988 29.436V20.672C54.6988 20.2613 54.6241 19.9627 54.4748 19.776C54.3441 19.5707 54.0921 19.4307 53.7188 19.356L53.2988 19.244V18.964L58.1148 17.34L58.3948 17.62L58.6468 20.028V20.252C58.9081 19.7293 59.2441 19.2533 59.6548 18.824C60.0841 18.376 60.5508 18.012 61.0548 17.732C61.5774 17.452 62.0908 17.312 62.5948 17.312C63.3041 17.312 63.8454 17.508 64.2188 17.9C64.5921 18.292 64.7788 18.7867 64.7788 19.384C64.7788 20.0187 64.5921 20.5133 64.2188 20.868C63.8641 21.204 63.4348 21.372 62.9308 21.372C62.1468 21.372 61.4561 20.98 60.8588 20.196L60.8028 20.14C60.6161 19.8787 60.4014 19.7387 60.1588 19.72C59.9161 19.6827 59.6921 19.7947 59.4868 20.056C59.3001 20.224 59.1414 20.4293 59.0108 20.672C58.8988 20.896 58.7868 21.1573 58.6748 21.456V29.268C58.6748 30.0147 59.0014 30.4813 59.6548 30.668L60.5508 30.92V31.2H53.2988ZM67.1006 31.2V30.92L67.4366 30.808C68.1086 30.584 68.4446 30.1173 68.4446 29.408V14.428C68.4446 14.0547 68.3699 13.7747 68.2206 13.588C68.0712 13.3827 67.8099 13.2333 67.4366 13.14L67.0726 13.056V12.776L72.1966 11.572L72.5326 11.824L72.4206 15.744V25.32C72.4206 26.0107 72.4206 26.7013 72.4206 27.392C72.4392 28.064 72.4486 28.736 72.4486 29.408C72.4486 29.7813 72.5232 30.0893 72.6726 30.332C72.8219 30.556 73.0739 30.724 73.4286 30.836L73.7926 30.92V31.2H67.1006ZM82.9243 31.62C81.823 31.62 80.8336 31.3773 79.9563 30.892C79.079 30.388 78.379 29.6227 77.8563 28.596C77.3523 27.5507 77.1003 26.216 77.1003 24.592C77.1003 22.9493 77.3896 21.596 77.9683 20.532C78.547 19.4493 79.3123 18.6467 80.2643 18.124C81.2163 17.5827 82.2523 17.312 83.3723 17.312C84.0256 17.312 84.651 17.3773 85.2483 17.508C85.8456 17.6387 86.3776 17.8347 86.8443 18.096V14.456C86.8443 14.064 86.779 13.7747 86.6483 13.588C86.5363 13.4013 86.2843 13.2707 85.8923 13.196L85.3603 13.084V12.804L90.4563 11.572L90.7643 11.824L90.6523 15.744V29.436C90.6523 29.8093 90.7176 30.1173 90.8483 30.36C90.979 30.584 91.2216 30.7427 91.5763 30.836L91.8283 30.92V31.2L87.0403 31.508L86.7883 30.5C86.2843 30.836 85.7056 31.1067 85.0523 31.312C84.4176 31.5173 83.7083 31.62 82.9243 31.62ZM84.5483 30.584C85.3323 30.584 86.051 30.3507 86.7043 29.884V18.768C86.0136 18.32 85.3043 18.096 84.5763 18.096C83.6803 18.096 82.915 18.6187 82.2803 19.664C81.6456 20.6907 81.3283 22.3147 81.3283 24.536C81.3283 26.7573 81.627 28.3253 82.2243 29.24C82.8216 30.136 83.5963 30.584 84.5483 30.584ZM15.5016 59.312L13.9056 42.512C13.8496 41.8773 13.5136 41.4293 12.8976 41.168L12.5616 41L12.6176 40.72H19.3096L19.2536 41L18.6376 41.224C18.0403 41.4293 17.7603 41.868 17.7976 42.54L18.6376 54.972L23.7896 44.668L23.5376 42.568C23.4629 41.9147 23.1176 41.4667 22.5016 41.224L21.8856 41L21.9416 40.72H28.7456L28.6896 41L27.9336 41.28C27.3176 41.504 27.0563 41.9427 27.1496 42.596L28.5216 55.028L34.0936 42.568C34.3549 41.9333 34.1683 41.4853 33.5336 41.224L32.9736 41L33.0296 40.72H37.1456L37.0896 41L36.4176 41.224C36.0443 41.3547 35.7363 41.532 35.4936 41.756C35.2509 41.98 35.0456 42.2693 34.8776 42.624L27.4856 59.312H25.4976L23.9576 46.152L17.4616 59.312H15.5016ZM43.1089 45.312C44.3223 45.312 45.3583 45.564 46.2169 46.068C47.0756 46.5533 47.7289 47.2253 48.1769 48.084C48.6436 48.924 48.8769 49.8853 48.8769 50.968C48.8769 51.1733 48.8676 51.388 48.8489 51.612C48.8303 51.8173 48.7929 52.004 48.7369 52.172H40.3929C40.4116 54.188 40.7663 55.644 41.4569 56.54C42.1663 57.4173 43.2116 57.856 44.5929 57.856C45.5263 57.856 46.2823 57.7067 46.8609 57.408C47.4396 57.1093 47.9809 56.6707 48.4849 56.092L48.7649 56.344C48.1863 57.3707 47.4116 58.1733 46.4409 58.752C45.4889 59.3307 44.3409 59.62 42.9969 59.62C41.6716 59.62 40.4956 59.34 39.4689 58.78C38.4423 58.2013 37.6396 57.38 37.0609 56.316C36.4823 55.252 36.1929 53.9827 36.1929 52.508C36.1929 50.9773 36.5289 49.68 37.2009 48.616C37.8729 47.5333 38.7316 46.712 39.7769 46.152C40.8409 45.592 41.9516 45.312 43.1089 45.312ZM43.0249 45.872C42.4836 45.872 42.0169 46.04 41.6249 46.376C41.2516 46.6933 40.9529 47.272 40.7289 48.112C40.5236 48.9333 40.4116 50.1 40.3929 51.612H45.1809C45.3676 49.5773 45.2929 48.112 44.9569 47.216C44.6209 46.32 43.9769 45.872 43.0249 45.872ZM56.211 59.62C55.1283 59.62 54.2136 59.312 53.467 58.696C52.739 58.08 52.375 57.1933 52.375 56.036C52.375 55.1587 52.823 54.356 53.719 53.628C54.615 52.8813 56.0243 52.3213 57.947 51.948C58.2456 51.892 58.5816 51.836 58.955 51.78C59.3283 51.7053 59.7203 51.6307 60.131 51.556V49.344C60.131 48.0747 59.9723 47.188 59.655 46.684C59.3563 46.1613 58.8803 45.9 58.227 45.9C57.779 45.9 57.4243 46.0493 57.163 46.348C56.9016 46.628 56.7336 47.1227 56.659 47.832L56.603 48.14C56.5656 48.9427 56.3696 49.5307 56.015 49.904C55.6603 50.2773 55.2216 50.464 54.699 50.464C54.2136 50.464 53.8123 50.3147 53.495 50.016C53.1776 49.7173 53.019 49.316 53.019 48.812C53.019 48.0467 53.2803 47.4027 53.803 46.88C54.3443 46.3573 55.0536 45.9653 55.931 45.704C56.8083 45.4427 57.7603 45.312 58.787 45.312C60.4483 45.312 61.727 45.7227 62.623 46.544C63.5376 47.3467 63.995 48.6627 63.995 50.492V56.68C63.995 57.52 64.387 57.94 65.171 57.94H65.787L66.039 58.164C65.6843 58.612 65.2923 58.9573 64.863 59.2C64.4523 59.4427 63.8643 59.564 63.099 59.564C62.2776 59.564 61.6243 59.3773 61.139 59.004C60.6723 58.612 60.3643 58.0987 60.215 57.464C59.655 58.0613 59.0763 58.5747 58.479 59.004C57.9003 59.4147 57.1443 59.62 56.211 59.62ZM57.919 57.912C58.2923 57.912 58.6376 57.828 58.955 57.66C59.291 57.4733 59.683 57.1933 60.131 56.82V52.116C59.9443 52.1533 59.7576 52.1907 59.571 52.228C59.3843 52.2653 59.1696 52.3027 58.927 52.34C58.0683 52.564 57.3776 52.9467 56.855 53.488C56.351 54.0107 56.099 54.72 56.099 55.616C56.099 56.3813 56.2763 56.96 56.631 57.352C56.9856 57.7253 57.415 57.912 57.919 57.912ZM68.5205 59.2V58.92L68.9405 58.808C69.3138 58.696 69.5658 58.528 69.6965 58.304C69.8458 58.08 69.9205 57.7907 69.9205 57.436V48.672C69.9205 48.2613 69.8458 47.9627 69.6965 47.776C69.5658 47.5707 69.3138 47.4307 68.9405 47.356L68.5205 47.244V46.964L73.3365 45.34L73.6165 45.62L73.8685 48.028V48.252C74.1298 47.7293 74.4658 47.2533 74.8765 46.824C75.3058 46.376 75.7725 46.012 76.2765 45.732C76.7991 45.452 77.3125 45.312 77.8165 45.312C78.5258 45.312 79.0671 45.508 79.4405 45.9C79.8138 46.292 80.0005 46.7867 80.0005 47.384C80.0005 48.0187 79.8138 48.5133 79.4405 48.868C79.0858 49.204 78.6565 49.372 78.1525 49.372C77.3685 49.372 76.6778 48.98 76.0805 48.196L76.0245 48.14C75.8378 47.8787 75.6231 47.7387 75.3805 47.72C75.1378 47.6827 74.9138 47.7947 74.7085 48.056C74.5218 48.224 74.3631 48.4293 74.2325 48.672C74.1205 48.896 74.0085 49.1573 73.8965 49.456V57.268C73.8965 58.0147 74.2231 58.4813 74.8765 58.668L75.7725 58.92V59.2H68.5205ZM83.6634 59.62C82.9914 59.62 82.4221 59.3867 81.9554 58.92C81.4888 58.4533 81.2554 57.8933 81.2554 57.24C81.2554 56.5867 81.4888 56.0173 81.9554 55.532C82.4221 55.0467 82.9914 54.804 83.6634 54.804C84.3354 54.804 84.9048 55.0467 85.3714 55.532C85.8381 56.0173 86.0714 56.5867 86.0714 57.24C86.0714 57.8933 85.8381 58.4533 85.3714 58.92C84.9048 59.3867 84.3354 59.62 83.6634 59.62Z" fill="currentColor"/>
</symbol>
</svg>