<svg width="24" height="24" viewBox="0 0 24 24" fill="none" xmlns="http://www.w3.org/2000/svg">
<path fill-rule="evenodd" clip-rule="evenodd" d="M11.469 6.969C11.5386 6.89915 11.6214 6.84374 11.7125 6.80593C11.8036 6.76812 11.9013 6.74866 12 6.74866C12.0986 6.74866 12.1963 6.76812 12.2874 6.80593C12.3785 6.84374 12.4613 6.89915 12.531 6.969L21.531 15.969C21.6718 16.1098 21.7509 16.3008 21.7509 16.5C21.7509 16.6992 21.6718 16.8902 21.531 17.031C21.3901 17.1718 21.1991 17.2509 21 17.2509C20.8008 17.2509 20.6098 17.1718 20.469 17.031L12 8.5605L3.53097 17.031C3.39014 17.1718 3.19913 17.2509 2.99997 17.2509C2.80081 17.2509 2.6098 17.1718 2.46897 17.031C2.32814 16.8902 2.24902 16.6992 2.24902 16.5C2.24902 16.3008 2.32814 16.1098 2.46897 15.969L11.469 6.969Z" fill="black"/>
</svg>

